<svg id="Layer_1" data-name="Layer 1" xmlns="http://www.w3.org/2000/svg" viewBox="0 0 850 850"><defs><style>.cls-1{fill:#49021f;}.cls-2{fill:#f36;}</style></defs><g id="Surfaces"><g id="Publishing_Surface" data-name="Publishing Surface"><g id="Outline_no_shadow" data-name="Outline no shadow"><path class="cls-1" d="M288.21,200H586.28A81.66,81.66,0,0,1,668,281.73V568.27A81.66,81.66,0,0,1,586.28,650H288.21a81.66,81.66,0,0,1-81.73-81.73V281.73A81.66,81.66,0,0,1,288.21,200Z"/></g></g></g><g id="Outlined_Mnemonics_Logos" data-name="Outlined Mnemonics Logos"><g id="Id"><path class="cls-2" d="M374.17,317.7V515c0,2.11-1,3.07-2.7,3.07H333.78c-1.73,0-2.5-1-2.5-3.07V317.7c0-1.73,1-2.5,2.69-2.5h37.49a2.16,2.16,0,0,1,2.5,1.92A.68.68,0,0,1,374.17,317.7Z"/><path class="cls-2" d="M484.94,521.15a95.55,95.55,0,0,1-41.35-8.65,67,67,0,0,1-29-26.16C407.44,474.61,404,460,404,442.5a78.88,78.88,0,0,1,41.15-70.38c13.46-7.5,29.62-11.16,48.66-11.16a33.06,33.06,0,0,1,4,.2c1.73.19,3.65.19,6,.39V300.78c0-1.35.57-2.12,1.93-2.12h39a1.74,1.74,0,0,1,1.93,1.35V483.46c0,3.47.19,7.3.38,11.54.39,4,.57,7.89.77,11.16a3.11,3.11,0,0,1-1.93,3.07,146.67,146.67,0,0,1-31.34,9.23A168.12,168.12,0,0,1,484.94,521.15Zm18.85-38.46V398.08a50.78,50.78,0,0,0-5.19-1c-2.12-.19-4.23-.39-6.35-.39a47.3,47.3,0,0,0-21.73,5A43.14,43.14,0,0,0,454.17,416c-4.24,6.16-6.35,14.42-6.35,24.42a53.41,53.41,0,0,0,3.27,19.81,37.68,37.68,0,0,0,8.66,13.65,33.15,33.15,0,0,0,13.07,7.69,50.08,50.08,0,0,0,16,2.5c2.88,0,5.58-.19,8.08-.39A16.15,16.15,0,0,0,503.79,482.69Z"/></g></g></svg>