<svg id="Layer_1" data-name="Layer 1" xmlns="http://www.w3.org/2000/svg" viewBox="0 0 850 850"><defs><style>.cls-1{fill:#300;}.cls-2{fill:#ff9a00;}</style></defs><g id="Layer_2" data-name="Layer 2"><g id="Surfaces"><g id="Drawing_Surface" data-name="Drawing Surface"><g id="Outline_no_shadow" data-name="Outline no shadow"><path class="cls-1" d="M276,200H574a81.66,81.66,0,0,1,81.73,81.73V568.27A81.66,81.66,0,0,1,574,650H276a81.66,81.66,0,0,1-81.73-81.73V281.73A81.66,81.66,0,0,1,276,200Z"/></g></g></g><g id="Outlined_Mnemonics_Logos" data-name="Outlined Mnemonics Logos"><g id="Ai"><path class="cls-2" d="M417.88,470H346.35l-14.62,45.19a3.36,3.36,0,0,1-3.65,2.69H291.93c-2.12,0-2.7-1.15-2.12-3.47l61.93-178.26c.57-1.93,1.15-4,1.93-6.35a67,67,0,0,0,1.15-12.5,1.88,1.88,0,0,1,1.54-2.11h49.8c1.54,0,2.31.57,2.5,1.54l70.2,198.06c.57,2.12,0,3.08-1.93,3.08h-40.2a2.91,2.91,0,0,1-3.07-2.11ZM357.5,431h48.84c-1.14-4-2.68-8.84-4.42-13.85-1.73-5.19-3.46-10.77-5.19-16.53-1.92-6-3.65-11.73-5.58-17.69s-3.65-11.54-5.19-17.12c-1.53-5.38-2.88-10.39-4.22-15h-.39a237.85,237.85,0,0,1-6.54,24.81C371.92,384.81,369,394.43,366,404c-2.7,9.8-5.58,18.85-8.47,26.92Z"/><path class="cls-2" d="M520.77,348.08a23.83,23.83,0,0,1-17.12-6.73,25.06,25.06,0,0,1-6.54-17.69A22.67,22.67,0,0,1,504,306.54a24.65,24.65,0,0,1,17.12-6.73c7.5,0,13.27,2.31,17.5,6.73a26.44,26.44,0,0,1-.38,34.81A22.58,22.58,0,0,1,520.77,348.08ZM499.23,515V366.93c0-1.93.77-2.69,2.51-2.69h38.07c1.73,0,2.5,1,2.5,2.69V515c0,2.11-.77,3.08-2.5,3.08H502.12C500.19,518.07,499.23,516.92,499.23,515Z"/></g></g></g></svg>