<svg id="Layer_1" data-name="Layer 1" xmlns="http://www.w3.org/2000/svg" viewBox="0 0 850 850"><defs><style>.cls-1{fill:#001e36;}.cls-2{fill:#31a8ff;}</style></defs><g id="Layer_2" data-name="Layer 2"><g id="Surfaces"><g id="Photo_Surface" data-name="Photo Surface"><g id="Outline_no_shadow" data-name="Outline no shadow"><path class="cls-1" d="M214.61,200H512.68a81.66,81.66,0,0,1,81.73,81.73V568.27A81.66,81.66,0,0,1,512.68,650H214.61a81.66,81.66,0,0,1-81.73-81.73V281.73A81.66,81.66,0,0,1,214.61,200Z"/></g></g></g><g id="Outlined_Mnemonics_Logos" data-name="Outlined Mnemonics Logos"><g id="Ps"><path class="cls-2" d="M236.73,515.57V317.7c0-1.34.57-2.11,1.92-2.11,3.28,0,6.35,0,10.77-.2,4.62-.19,9.43-.19,14.62-.39s10.77-.19,16.73-.39,11.73-.19,17.49-.19c15.78,0,28.84,1.93,39.61,6a68.61,68.61,0,0,1,25.77,15.77,61.23,61.23,0,0,1,14,21.93,73.7,73.7,0,0,1,4.42,25q0,24.81-11.54,41a65.83,65.83,0,0,1-31,23.46c-13.08,4.81-27.5,6.54-43.28,6.54-4.61,0-7.69,0-9.62-.2s-4.61-.19-8.26-.19v61.73a2.38,2.38,0,0,1-2.12,2.68H239C237.49,518.07,236.73,517.31,236.73,515.57Zm41.91-162.88v64.62c2.7.19,5.19.39,7.5.39h10.19a71.53,71.53,0,0,0,22.12-3.47A33.11,33.11,0,0,0,334.22,404c4-4.81,6-11.35,6-19.81a31.68,31.68,0,0,0-4.42-17.12,27.94,27.94,0,0,0-13.46-11,56.52,56.52,0,0,0-22.68-3.85c-5,0-9.43,0-13.08.2a43.77,43.77,0,0,0-7.9.19Z"/><path class="cls-2" d="M502.1,405.57A68.51,68.51,0,0,0,483.64,399a101.21,101.21,0,0,0-21.53-2.5,38.5,38.5,0,0,0-11.54,1.34,9.86,9.86,0,0,0-6,3.85,10.14,10.14,0,0,0-1.54,5.19,8.53,8.53,0,0,0,1.93,5,21.53,21.53,0,0,0,6.54,5.19c4.42,2.31,9,4.42,13.65,6.35a139.79,139.79,0,0,1,29.62,14,44.75,44.75,0,0,1,15.19,16,41.37,41.37,0,0,1,4.42,19.81,44.68,44.68,0,0,1-7.5,25.57A48.11,48.11,0,0,1,485.39,516c-9.43,4-21,6.16-34.81,6.16a131.87,131.87,0,0,1-26.16-2.51,78.18,78.18,0,0,1-19.61-6.15,3.78,3.78,0,0,1-2.11-3.65V476.34a2.12,2.12,0,0,1,.77-1.73,1.45,1.45,0,0,1,1.73.19,82.66,82.66,0,0,0,23.85,9.43,89.11,89.11,0,0,0,22.69,2.88c7.31,0,12.5-1,15.95-2.69a8.91,8.91,0,0,0,5.19-8.08c0-2.68-1.53-5.19-4.61-7.69s-9.43-5.38-18.85-9a117.61,117.61,0,0,1-27.3-13.84,49.77,49.77,0,0,1-14.62-16.35,41.22,41.22,0,0,1-4.42-19.61,45.25,45.25,0,0,1,6.54-23.27,47.34,47.34,0,0,1,20.2-17.69c9-4.62,20.39-6.73,34-6.73a164.72,164.72,0,0,1,23.84,1.73,68.11,68.11,0,0,1,16.55,4.42,3.45,3.45,0,0,1,1.93,1.74,9.7,9.7,0,0,1,.38,2.3v31.35a2.36,2.36,0,0,1-1,1.93C503.84,406,502.87,406,502.1,405.57Z"/></g></g></g></svg>