<svg id="Layer_1" data-name="Layer 1" xmlns="http://www.w3.org/2000/svg" viewBox="0 0 850 850"><defs><style>.cls-1{fill:#470137;}.cls-2{fill:#ff61f6;}</style></defs><path class="cls-1" d="M239.41,200H537.48a81.66,81.66,0,0,1,81.73,81.73V568.27A81.66,81.66,0,0,1,537.48,650H239.41a81.66,81.66,0,0,1-81.73-81.73V281.73A81.66,81.66,0,0,1,239.41,200Z"/><path class="cls-2" d="M400.37,318.27l-57.69,95.19,61.54,101a3.36,3.36,0,0,1,.39,2.31c-.2.77-1,.2-2.12.39H358.44c-3.07,0-5.19-.19-6.54-2.11-4-8.08-8.27-16-12.31-24-4-7.89-8.46-16-13.07-24.24s-9.23-16.53-13.85-25h-.38c-4,8.26-8.46,16.54-12.88,24.81s-8.84,16.53-13.08,24.61c-4.42,8.08-8.84,16.35-13.27,24.23-.77,1.93-2.31,2.11-4.42,2.11H226.33c-.76,0-1.34.39-1.34-.57a2.67,2.67,0,0,1,.39-2.12l59.8-98.07-58.27-98.65c-.58-.77-.77-1.54-.39-1.93a2.26,2.26,0,0,1,1.93-.77H272.1a11.46,11.46,0,0,1,2.69.39,5.57,5.57,0,0,1,1.93,1.74c3.65,8.26,7.89,16.53,12.31,24.8,4.62,8.27,9,16.35,13.85,24.42,4.61,8.08,8.84,16.16,12.88,24.42h.38c4-8.46,8.26-16.72,12.5-24.81s8.66-16.15,13.08-24.22,8.65-16.35,12.88-24.24a3.28,3.28,0,0,1,1.15-1.92,3.65,3.65,0,0,1,2.5-.39h40.57a1.77,1.77,0,0,1,2.12,1.34c.2.21-.19,1-.57,1.36Z"/><path class="cls-2" d="M489.21,521.15a95.51,95.51,0,0,1-41.34-8.65,67.13,67.13,0,0,1-29-26.16c-7.12-11.73-10.57-26.35-10.57-43.84a79,79,0,0,1,10.57-40.58,79.93,79.93,0,0,1,30.58-29.8C462.86,364.62,479,361,498.06,361a33,33,0,0,1,4,.2c1.74.19,3.65.19,6,.37V300.77c0-1.35.58-2.12,1.93-2.12h39A1.73,1.73,0,0,1,551,300V483.46c0,3.47.2,7.3.39,11.54.38,4,.58,7.89.77,11.16a3.1,3.1,0,0,1-1.93,3.07,146.1,146.1,0,0,1-31.34,9.23A170,170,0,0,1,489.21,521.15Zm18.85-38.46V398.08a50.28,50.28,0,0,0-5.19-1c-2.11-.19-4.22-.39-6.35-.39a47.33,47.33,0,0,0-21.73,5A43.21,43.21,0,0,0,458.44,416c-4.22,6.16-6.35,14.42-6.35,24.42a53.63,53.63,0,0,0,3.28,19.81A37.65,37.65,0,0,0,464,473.84a33.05,33.05,0,0,0,13.08,7.69,50,50,0,0,0,16,2.5c2.88,0,5.58-.19,8.08-.39a16.69,16.69,0,0,0,6.92-.95Z"/></svg>