<svg id="Layer_1" data-name="Layer 1" xmlns="http://www.w3.org/2000/svg" viewBox="0 0 850 850"><defs><style>.cls-1{fill:#00005b;}.cls-2{fill:#99f;}</style></defs><g id="surface1"><path class="cls-1" d="M312.52,200H610.59a81.65,81.65,0,0,1,81.73,81.72V568.27A81.65,81.65,0,0,1,610.59,650H312.52a81.66,81.66,0,0,1-81.73-81.72V281.73A81.66,81.66,0,0,1,312.52,200"/><path class="cls-2" d="M355.79,431h48.84c-1.15-4-2.69-8.84-4.42-13.84-1.73-5.2-3.46-10.77-5.19-16.54-1.92-6-3.65-11.74-5.58-17.69s-3.65-11.54-5.19-17.12c-1.54-5.38-2.88-10.39-4.23-15h-.38a239,239,0,0,1-6.54,24.81c-2.89,9.23-5.77,18.84-8.85,28.46-2.5,9.81-5.57,18.84-8.46,26.92m60.38,38.27H344.64L330,514.61a3.37,3.37,0,0,1-3.65,2.7H290.21c-2.11,0-2.69-1.16-2.11-3.47L350,336.35c.58-1.92,1.15-3.66,1.92-6a67.13,67.13,0,0,0,1.16-12.5,1.91,1.91,0,0,1,1.54-2.12h49.81c1.34,0,2.3.58,2.49,1.54l70.19,197.11c.58,2.11,0,3.08-1.92,3.08H435a2.89,2.89,0,0,1-3.07-2.12"/><path class="cls-2" d="M530.21,423.46h40.57c5,0,8.66,0,11-.19a9.39,9.39,0,0,0,4.42-1.54v-1.92a22.36,22.36,0,0,0-1.15-7.12A25.46,25.46,0,0,0,560,395a27.07,27.07,0,0,0-25.58,14.62,39.6,39.6,0,0,0-4.23,13.84m61,28.08h-61a42.35,42.35,0,0,0,6,17.11,30.45,30.45,0,0,0,14,11.54A59.81,59.81,0,0,0,574.82,485a115.11,115.11,0,0,0,20-2.12,72.15,72.15,0,0,0,17.12-4.42c1-.77,1.54-.39,1.54,1.54v29.42a9.8,9.8,0,0,1-.39,2.31,4.39,4.39,0,0,1-1.34,1.34,81.75,81.75,0,0,1-19.24,5.77,130,130,0,0,1-27.3,2.31c-14.62,0-26.92-2.31-36.92-6.73a64.59,64.59,0,0,1-24.23-18.27A70.43,70.43,0,0,1,490.79,471a99.61,99.61,0,0,1,.77-58.66A78.4,78.4,0,0,1,506,386a69.74,69.74,0,0,1,23.27-18.27c9-4.42,19.81-6,32.11-6a69.52,69.52,0,0,1,29.81,6,53.14,53.14,0,0,1,20.19,15.38A70.53,70.53,0,0,1,622.9,405a75.64,75.64,0,0,1,3.65,23.46c0,4.62-.19,8.66-.38,12.31-.38,3.65-.58,6.34-.77,8.08a2.88,2.88,0,0,1-2.69,2.5c-1.16,0-3.27.19-6.35.38a91.89,91.89,0,0,1-11.15.58c-4.43,0-9-.77-14-.77"/></g></svg>