<svg id="Layer_1" data-name="Layer 1" xmlns="http://www.w3.org/2000/svg" viewBox="0 0 850 850"><defs><style>.cls-1{fill:#00005b;}.cls-2{fill:#99f;}</style></defs><path class="cls-1" d="M337.32,200H635.39a81.66,81.66,0,0,1,81.73,81.73V568.27A81.66,81.66,0,0,1,635.39,650H337.32a81.66,81.66,0,0,1-81.73-81.73V281.73A81.66,81.66,0,0,1,337.32,200Z"/><path class="cls-2" d="M365.21,515.57V317.7c0-1.34.57-2.11,1.93-2.11,3.27,0,6.35,0,10.77-.2,4.61-.19,9.42-.19,14.61-.39s10.77-.19,16.73-.39,11.73-.19,17.5-.19c15.76,0,28.84,1.93,39.6,6a68.64,68.64,0,0,1,25.77,15.76,61.23,61.23,0,0,1,14,21.93,73.7,73.7,0,0,1,4.42,25q0,24.81-11.54,41a65.83,65.83,0,0,1-31,23.46c-13.08,4.81-27.5,6.54-43.27,6.54-4.62,0-7.7,0-9.61-.2s-4.62-.19-8.27-.19v61.73a2.37,2.37,0,0,1-2.11,2.68H367.51c-1.53,0-2.3-.76-2.3-2.5Zm41.92-162.88v64.62c2.69.19,5.18.39,7.49.39h10.2a71.46,71.46,0,0,0,22.11-3.47A33,33,0,0,0,462.69,404c4-4.81,6-11.35,6-19.81a31.59,31.59,0,0,0-4.42-17.12,28,28,0,0,0-13.45-11,56.59,56.59,0,0,0-22.7-3.85c-5,0-9.43,0-13.08.2a43.44,43.44,0,0,0-7.87.19Z"/><path class="cls-2" d="M537.51,363.84h33.65a4.32,4.32,0,0,1,4,3.08,18.9,18.9,0,0,1,1.15,4.81c.39,1.93.77,4,1,6,.19,2.11.39,4.42.39,6.92a71.29,71.29,0,0,1,20.57-16.53,59.59,59.59,0,0,1,29.23-7.5,2.39,2.39,0,0,1,2.69,2.11V401c0,1.54-1,2.11-3.08,2.11A83.2,83.2,0,0,0,606.35,405a78.61,78.61,0,0,0-16.15,5.19,29.88,29.88,0,0,0-9.81,7.12v98.07c0,1.93-.77,2.68-2.5,2.68H540a2.65,2.65,0,0,1-3.07-2.3V408.46c0-4.62,0-9.43-.2-14.42s-.19-10-.39-15c0-4.42-.38-8.65-.77-13.07a1.78,1.78,0,0,1,1.35-2.12c0-.19.4-.19.59,0Z"/></svg>