<svg id="Layer_1" data-name="Layer 1" xmlns="http://www.w3.org/2000/svg" viewBox="0 0 850 850"><defs><style>.cls-1{fill:#e44d26;}.cls-2{fill:#f16529;}.cls-3{fill:#ebebeb;}.cls-4{fill:#fff;}</style></defs><path class="cls-1" d="M623.39,200,587.25,605,424.76,650l-162-45L226.61,200Z"/><path class="cls-2" d="M425,615.57l131.3-36.4,30.89-346H425V615.57Z"/><path class="cls-3" d="M354.73,332.46H425V282.79H300.44l1.19,13.33L313.84,433H425V383.33H359.27l-4.54-50.87Z"/><path class="cls-3" d="M365.92,457.84H316.06l7,78,101.75,28.24L425,564V512.34l-.22.06-55.32-14.94-3.54-39.62Z"/><path class="cls-4" d="M424.83,433H486l-5.77,64.43-55.4,14.95v51.68l101.83-28.22.75-8.4,11.67-130.77,1.21-13.34H424.83V433Z"/><path class="cls-4" d="M424.83,332.34v.12h120l1-11.16,2.26-25.18,1.19-13.33H424.83v49.55Z"/></svg>