<svg id="Layer_1" data-name="Layer 1" xmlns="http://www.w3.org/2000/svg" xmlns:xlink="http://www.w3.org/1999/xlink" viewBox="0 0 850 850"><defs><style>.cls-1{fill:none;}.cls-2{clip-path:url(#clip-path);}.cls-3{fill:#06b6d4;fill-rule:evenodd;}</style><clipPath id="clip-path"><rect class="cls-1" x="50" y="200" width="750" height="450"/></clipPath></defs><g class="cls-2"><path class="cls-3" d="M425,200q-150,0-187.5,150,56.25-75,131.25-56.25c28.53,7.12,48.92,27.83,71.49,50.74C477,381.81,519.56,425,612.5,425q150,0,187.5-150-56.25,75-131.25,56.25c-28.53-7.13-48.92-27.83-71.49-50.74C560.5,243.19,517.94,200,425,200ZM237.5,425Q87.5,425,50,575q56.25-75,131.25-56.25c28.53,7.14,48.92,27.83,71.49,50.74C289.5,606.81,332.06,650,425,650q150,0,187.5-150-56.25,75-131.25,56.25c-28.53-7.13-48.92-27.83-71.49-50.74C373,468.19,330.44,425,237.5,425Z"/></g></svg>