<svg id="Layer_1" data-name="Layer 1" xmlns="http://www.w3.org/2000/svg" viewBox="0 0 850 850"><defs><style>.cls-1,.cls-5,.cls-7{fill:#010101;}.cls-2,.cls-8{fill:#8ac640;}.cls-3{fill:#f0efef;}.cls-4{fill:#0a1825;}.cls-5{opacity:0.3;}.cls-5,.cls-7{isolation:isolate;}.cls-6{fill:none;}.cls-7{opacity:0.4;}.cls-8{stroke:#010101;stroke-linejoin:round;stroke-width:10.86px;}</style></defs><path class="cls-1" d="M260.42,390.05c-16.24,7.64-59.2,42-67.48,52.19-8.59,10.19-11.14-5.72-2.23-32.14,7-21.32,24.83-50.29,54.75-75.11,17.5-14.32,56-35,79.56-47.1,4.78-2.55,66.52-28.65,121.58-41.7,4.78-1.27-5.73,8-7.32,13.05C431,283.43,265.82,387.18,265.82,387.18ZM493.07,681.9c2.86,17.19.32,18.46-17.51,20.69s-30.87-4.46-35.64-8.91-5.73-14.33-1-23.24c2.87-5.73,5.73-7.64,7.32-14.64A36,36,0,0,1,450.42,645c1.27-2.23,1.59-4.46,1.91-20.05s0-44.88,1.59-57.29c1.59-12.73,56.66,5.73,56.66,5.73S497.52,605.83,494,613.79s-3.18,23.23-3.18,26.42-1.27,9.54-2.23,9.86,3.19,8.59,1.28,13.37c-1.28,4.46,2.86,15.91,3.18,18.46Zm21-486.63c-1.91-12.09,0-36,2.55-39.78,8-10.83,50-12.1,58.88.63,3.82,5.73,3.5,19.1,2.86,27.69s-2.86,27.05-3.18,33.1c-.32,4.46-46.47,11.46-56.65-.64-2.87-3.18-4.46-21-4.46-21ZM607.64,651c19.42,14,34.38,16.55,44.24,21.64s7.32,15-9.23,17.82C629.29,693,608.28,688,594.28,688s-45.2,1.59-53.47-4.14c-9.55-6.68-5.41-19.1-5.41-19.1,2.54-7,8.91-22.59,7-35.32s-4.46-19.74-9.23-31.51-8.28-40.74-3.82-42.33,3.18,0,8.91,1.27,12.1,3.18,24.51,3.18a188,188,0,0,0,30.87-2.86c4.77-1,8.59-1.91,7,8s-6.36,28.32-6.68,42.64-.32,30.88.64,33.74,7.95,6,13,9.55Z"/><path class="cls-2" d="M539.54,227.1c-35,30.23-102.81,38.51-203.38,77.34-25.78,9.86-94.52,39.46-111.07,70.33,55.69-32.14,76.38,12.1,80.84,57.61,4.13,42.65,25.46,64.93,80.2,63.65,56.33-1.27,73.52,31.51,89.11,70,30.24-147.36,78.62-176,109.81-201.14,66.2-53.79-15.28-148.64-45.51-137.81Z"/><path class="cls-2" d="M539.54,227.1c-84,29.28-167.1,36.6-264.8,96.75-23.24,14.32-72.25,46.78-81.8,108.85,35.65-39.47,118.08-89.12,219-120.63,50.92-15.91,88.16-26.41,133.35-43.92-3.18-20.37-3.18-28.32-5.72-41Z"/><path class="cls-1" d="M646.79,401.51s-6,20.68-18.14,27.37c0,0-8.91,3.18-26.73-6.68-5.1-2.87-8.92-12.73-8.6-15.92.32-7.64,5.09-11.14,5.09-11.14s5.1-8.59,11.14-8.27,16.24,1.27,19.42-1.6c2.86-3.18,18.46,5.73,17.82,16.24ZM516.94,201.32s-1.27,16.23-3.5,26.41c-.32,1.91-9.87,2.87-16.87,5.73,13.37,38.19,93.89,37.87,104.39,19.1a138.79,138.79,0,0,0-20.05-10.82c-4.77-1.91-4.46-1.59-4.77-10.51s-1-25.46-1.6-29.91-50-4.46-57.6,0Z"/><path class="cls-3" d="M520.12,201.32s0,9.23-1,18.14a74.69,74.69,0,0,1-1.28,9.86c-.31,1.91,10.82,9.55,14,26.42,15.27,34.05,50.6,17.19,65.24.95a123,123,0,0,0-22.91-12.09c-4.78-1.91-2.55-6-2.87-15s-1.59-22-2.22-26.73-41.38-6-49-1.59Z"/><path class="cls-1" d="M516.94,201.32s-.32,5.73-1.27,12.41c4.13,4.14,9.54,9.86,13.68,13.37,2.87,2.54,9.87,2.22,16.23,2.22,5.73,0,10.82.64,13-.63,5.1-2.55,12.42-8.91,16.55-13.69-.31-5.73-.63-11.14-.95-13.68C573.91,196.86,524.58,196.86,516.94,201.32Z"/><path class="cls-1" d="M545.9,225.5a70.26,70.26,0,0,1-11.78-.95,18.67,18.67,0,0,1-4.45-1.91c-2.23-1.59-4.46-3.5-7-5.41-5.1-3.82-5.41-6-5.41-7a148.47,148.47,0,0,0-.64-36.92s-2.23-8.59,9.86-10.82a156.81,156.81,0,0,1,19.42-2.55,101.52,101.52,0,0,1,19.41,2.55c12.1,2.23,9.87,10.82,9.87,10.82a148.47,148.47,0,0,0-.64,36.92c0,1-.31,3.18-5.41,7-4.45,3.18-8,6.68-11.45,7.32A70.34,70.34,0,0,1,545.9,225.5Z"/><path class="cls-1" d="M545.9,151.67c-21,0-25.14,5.73-31.19,12.09-1.27,1.59-.32,11.14,1.91,31.51h2.86a38.07,38.07,0,0,1-1.59-12.41c.32-6.69,1.59-6.37.64-8-1.27-1.91-3.82-5.09,1.91-8.28s14.64,2.55,25.46,2.87c10.82-.32,20.05-6.05,25.78-2.87s3.18,6.37,1.91,8.28.32,1.27.64,8a38.23,38.23,0,0,1-1.6,12.41h2.87c1.91-20.37,3.18-29.28,2.23-30.87C572.32,157.4,566.91,152,545.9,151.67ZM646.79,402.46s-6,19.42-17.82,26.1c-2.55-1.27-2.23-3.18-4.46-6.05-.64-.95-2.86-1.59-3.82-2.54s-.63-2.55-2.23-3.82c-1.27-1.28-2.22-.32-3.5-1.28-1.27-1.27-1.59-2.86-2.54-3.81-.64-.64-3.19-1-3.82-1.6-1.59-1.59-15.6-4.45-15-7.63a27.62,27.62,0,0,1,3.82-8.28s6-8.91,12.09-8.59,11.78,1.59,15-1.28c3.5-3.18,23.24,8.6,22.28,18.78Z"/><path class="cls-1" d="M605.42,261.79s20.05-4.78,33.73,8.27a36.17,36.17,0,0,1,8.6,40.1,30.86,30.86,0,0,1,5.09,29.28c21,17.83,11.77,45.2-7,63.34,0,0-4.46-16.55-22.28-17.51.63-6.36-16.55-11.45-8.6-28-12.09-2.87-11.77-11.14-13.68-21.33-1.59-10.18,4.14-74.15,4.14-74.15Z"/><path class="cls-3" d="M598.1,270.7s23.23-11.78,36.92,1.59,9.86,28,5.72,38.19c3.5,4.14,11.78,15.92,6.69,29.92-1,3.18-8,3.18-13,11.46,12.73-7.33,20.68-5.41,23.55,3.81,4.45,14.33-5.41,31.51-14,41.06,0-.32-.31-.64-.31-1-1.28,4.77-2.87,14-12.42,24.18-4.77,5.1-8.59,4.46-14,3.19-6.36-1.59-8.59-4.46-17.5-9.23-5.1-2.87-2.23-6.37-2.23-9.23,0-.64.63-1.59,1.59-2.87.64-1.59,2.55-4.13,5.41-7,0,0,4.14-5.73,10.19-5.41s12.41-1,14-2.54c0-11.14-12.73-11.46-8.28-30.56.32-.95,1.92-2.55,7-3.18-7.64-1.59-11.14-1.91-16.55-7a23.46,23.46,0,0,1-7.64-13.69c-1.91-9.86-5.09-61.74-5.09-61.74Z"/><path class="cls-1" d="M530.94,250.65a57.5,57.5,0,0,0-30.55-20.37c-5.41-1.59-8.91,2.86-14.32,6.05-1.6-1-8.6-4.14-12.42-1.91s-6.36,4.45-10.18,6c-1.91-1-7-1-11.14.64-4.14,1.27-10.5,4.14-16.55,12.41C432,267.2,503.25,257,503.25,257Z"/><path class="cls-2" d="M531.58,250.65c-10.19-3.5-8.6-15.28-31.19-17.19-4.46-.32-7.32,3.18-10.51,5.41a19.71,19.71,0,0,1,4.14,6.68c-2.86-3.18-7.95-7.32-13-8.27-4.77-.95-8,2.55-13.05,5.09a32.93,32.93,0,0,1,3.18,4.46c-4.45-2.86-7.63-3.82-13.68-1.59a35.13,35.13,0,0,0-18.14,13.36c-3.82,13.69,64.29-1.59,64.29-1.59Z"/><path class="cls-1" d="M591.41,255.74s0-3.5-.32-6.68c0-.64-2.54-2.23-2.54-2.87l-.64-.63s5.09-2.87,8.91-1.28c4.14,1.28,6.37,6.69,6.37,6.69,7.32-2.55,7.95.32,11.46,4.13,7.64-1.59,8.59,1.28,13.36,8.28,0,0-5.72-.95-16.86.95-10.83,1.59-19.74-8.91-19.74-8.59Z"/><path class="cls-2" d="M590.14,254.15s1.91-1.59,1.27-1.91c3.5-1.91,8.28-4.14,10.5,1.91,7.32-2.55,8.28.95,11.78,4.77,8.91-4.13,9.55,1,10.18,3.19a124.26,124.26,0,0,0-12.73.95C600.32,264.65,589.82,253.83,590.14,254.15Z"/><path class="cls-1" d="M481.93,246.19s18.14,6.37,33.42,5.41c15.27-1.27,41.37-2.54,55.37,5.73,0,0,14.33-5.09,27.69-1.59s37.88,26.42,30.56,50.6c-.64,1.6-4.78,4.14-9.55,5.73,0,0,2.55,10.82-1.91,19.73-4.45,8.6-14.32,25.15-14.64,48.06-.32,3.82-1,11.78-1.59,15.6-24.83-1-63-10.19-100.57-9.55.31-4.14.63-6.68,1-10.82h1c-1.91-10.5-2.55-15.91-4.46-23.87-12.09-7.64-24.83-16.55-35.65-33.42-10.5-16.87,19.42-71.61,19.42-71.61ZM604.78,418.06s19.73,70.65-3.5,100.25a42.26,42.26,0,0,1-4.46,28.33C595.55,553,594,558.73,593,565.1c-4.13,26.41-11.14,37.55-13,79.88l-19.09-.32s-2.23-30.55-8.91-46.78c-3.82-9.23-18.78-21.65-18.14-34.06.63-9.54,2.54-17.5,18.78-30.23,1.27-18.46-17.19-36-14.33-104.71Z"/><path class="cls-3" d="M599.05,415.19c5.09,32.46,16.87,80.52-4.45,104.07a48.13,48.13,0,0,1,.31,18.14,73.91,73.91,0,0,1-3.5,12.42c-3.18,7.63-4.45,18.77-5.41,25.46-4.14,26.41-4.14,27.69-6,70L560.86,645s-2.23-30.56-8.91-46.79C548.13,589,540.17,581,539.54,568.6c-.64-9.55,6-28.65,22-28-1-38.51-18.78-30.87-23.56-111.08Zm-117.12-169a75.42,75.42,0,0,0,14.64,2.87c7.64.63,15.91,0,23.23-.32,15.28-1.27,36.92-2.87,51.24,5.41a49.21,49.21,0,0,1,16.55-1.91c3.82.32,7.64,3.5,12.1,4.77,14,3.5,27.37,26.74,21.32,47.74-.64,1.59-5.09,0-10.18,1.59a42.18,42.18,0,0,1-3.51,25.47c-5.41,10.82-12.41,24.82-11.14,51.56-33.41-1.6-48.37-3.82-81.47-5.41-2.87-11.78-4.78-23.56-5.09-29.6a31.78,31.78,0,0,0,10.5-8c-9.55,1.59-13.37,1-19.1-2.23s-15.91-13.37-21-20.05c-.64-.64-4.14,9.87-12.1,10.19-2.86-4.14,9.23-15.92,7-20.37-7.95-16.24,7-61.75,7-61.75Z"/><path class="cls-1" d="M601.6,388.77s.63,11.46.63,14.33c0,3.18,2.55,12.73,2.87,17.18-3.5,6.05-18.78,19.74-46.47,24.83C531.26,450.84,495,407.87,495,407.87c.95-4.14,4.13-16.23,6.36-22.6a10,10,0,0,0,1-2.86C505.16,378.27,601.6,388.77,601.6,388.77Z"/><path class="cls-3" d="M594.6,389.73c0,8,1.27,13.69,2.22,18.78,1.59,9.23,4.14,15.28,4.14,21.32,0,18.46-24.19,15.28-44.56,15.92-27.37,5.73-50.6-37.24-50.6-37.24,1.91-7.32,3.18-15.59,6-22.6.32-3.82,1-8.59,1.28-10.82a812.71,812.71,0,0,1,82.11,3.82c.64,3.5,0,9.55-.63,10.82Z"/><path class="cls-1" d="M564,430.79s-16.87-37.56-67.47-26.42c-12.1,34.06-28.33,73.2-17.83,115.53-10.5,14.32-22.59,22.28-22.59,48.7s1.27,30.87,1.27,30.87l37.24,1.91s12.09-15.59,16.87-32.46a69.32,69.32,0,0,0,1.59-23.24c1.27-1.91,6.68-6.36,7.32-14.95,0,0,18.14-9.55,28.64-32.78,9.87-21,7.32-39.16,15-67.16Z"/><path class="cls-3" d="M564,430.79c-.95-3.5-13.68-37.88-60.79-27.69-27.69,73.84-17.5,104.39-13.37,117.76-18.77,23.86-27.37,29-23.55,77.33h24.83c11.46-18.14,14-24.82,14.64-48.69,0-1-3.5,1.91-6.05,5.09,1.91-9.86,7.32-11.77,11.46-17.82a18.87,18.87,0,0,0,3.5-11.46c22.28-15,30.55-33.73,35.33-53.15,3.82-13.37,8.27-35.33,14-41.37Z"/><path class="cls-1" d="M485.43,379.55a66.62,66.62,0,0,1,16.23,2.86c7.32,2.55,7.32,4.14,10.19,7.32s9.86,8,8.59,12.73c-.64,2.55-2.23,3.18-4.46,5.41-1,1-8,8.59-9.54,9.55-1,.64-2.23,1.59-3.19,2.23l-4.77,3.18c-3.18,1.59-5.41,2.55-8.91,2.23,0,0-8-.32-13.05-5.73,0,0-.64-2.55.64-3.82,0,0-6.69-5.73-8.6-9.55s-1.91-9.23-.63-12.09c.63-2.87,13-10.82,17.5-14.32Zm8,309.67-1,8s-2.86,3.5-24.19,3.18c-21.64-.32-27.37-7-29.28-10.5l-1.27-8.28s4.14-6,5.09-6c7,.63,30.88,10.18,47.43,12.73,1.59,0,1.9.63,3.18,1ZM539.54,673c0,3.5-.32,3.5-.32,7,3.82,2.86,13.37,4.46,31.5,4.14,26.42-.64,50.93,8,80.84,2.86l.32-5.73-2.86-.32-106-8.59Z"/><path class="cls-1" d="M562.77,684.13h8c17.19-.64,33.42,3.18,50.93,4.14,9.23-.32,20.69-2.55,19.73-9.23L551,671.4c-5.41,6-1.27,11.14,11.78,12.73ZM459,550.14c2.87,1.91,22.28,13.36,53.79,11.77-.64,6.05-.32,17.83-14.32,38.51-7,10.19-13.05,28-14.32,50.61.31,5.09,3.18,9.55-.64,16.23,1.27,4.14,6.36,12.41,8.91,17.5s3.82,10.83-13.05,11.14c-17.19.32-44.88-1.59-41.05-14.95,1.91-7,7.32-14.33,7.95-17.19s.64-11.46,6.05-17.19c4.77-15.91,3.18-31.19,2.23-45.51-1.59-15-1.91-38.83,4.45-50.92Zm29.6-259.39c22.6-30.24,3.5-54.42-32.78-47.1-14.64,2.86-29.28,13-30.23,31.5-4.78.64-15.6,1.28-21,21-4.14,15.28-6.36,18.14-13.69,25.78-4.77,5.41.32,16.55,3.82,24.51,11.78,27.37,48.06,29.91,72.57,50.6,8.27-2.23,16.87-11.46,19.41-17.5C466,355,470.47,345.49,462.19,332.76c8.92-3.18,29.29-15.59,26.42-42Z"/><path class="cls-3" d="M484.16,288.84c1.27-1.91,3.5-6,4.45-7.64.32-.32,3.82,5.73,4.14,5.41,8.59-14,10.82-34.37.95-36.28a56,56,0,0,1-9.86-2.55c-6.37-2.23-12.1-2.23-22.28-.32-14,2.55-28,12.73-28,27.37,0,1,9.87,3.82,12.73,15.6-4.77-6.68-13-14-22.91-7.64-10.51,6.68-5.1,22-19.1,37.87-4.78,5.42-4.14,11.78,1,24.51,8.28,20.05,47.43,30.87,68.75,50,5.09-2.23,8.59-7.32,11.14-11.14-14.32-15-20.05-29-24.19-39.15-5.09-11.77-10.82-18.46-22-27.37,5.73,2.23,10.19,4.46,12.73,6.37,2.86,1.9,7,2.22,10.82.95,13.69-4.77,21-23.87,21.65-36Z"/><path class="cls-1" d="M622.6,293.93c-1,12.1-9.86,6.05-14.64,3.82-9.55-4.14-19.09-7-30.23-7s-25.47.95-37.88,4.14c-17.18,4.77-22.28,4.45-29.91.63-7.64-4.13-21-14.32-21-14.32s-.32,3.18,2.87,7.32c4.13,5.09,13.36,11.46,25.78,15.6,6,1.91,10.82.63,16.23-.64,28.32-7,58.24-8.28,83.38,7,1.28.64,5.73-1.27,7.64-4.14C627.38,302.21,622.6,293.93,622.6,293.93Z"/><path class="cls-4" d="M477.79,415.19c2.55,1.59,5.73,2.55,9.23,5.41,0,0-2.86,0-4.14-1.27A44.82,44.82,0,0,1,477.79,415.19Z"/><path class="cls-3" d="M569.77,162.81c-.95-2.87-8-8-24.19-8-17.5,0-22.6,5.41-22.91,8.27,0,1-1.28,11.14-1.59,15.28,0,0,0,5.09.31,12.73.32,5.09,1.59,8,2.23,14.64.64,7,2.55,11.46,6,17.19,1.59.95,2.86,1.91,4.45,2.23,6.37,1.27,17.51,1.59,23.56,0,3.5-1,8-7,8.91-12.42,1.27-6.68,2.54-11.46,2.86-15.59.64-4.14,1-13.37,1.27-15.92,1-7-.63-17.82-1-18.45Z"/><path class="cls-1" d="M536.35,556.18s16.87,7.32,58.56,1c0,0-11.77,59.2-6.36,88.79,0,0,5.41,7.64,45.51,22.28,0,0,17.82,4.46,17.19,13.37,0,0,.63,1.91-21,1.27s-42-4.45-56.33-4.45-29.6.63-32.15-3.5c-2.86-3.82.64-13.69,4.78-19.42,4.46-6,3.18-10.5,2.86-21.32-.95-28.33-22.6-57.61-13-78Z"/><path class="cls-2" d="M532.85,561.6c-2.23,3.18.32,15.27,3.5,27s10.19,18.78,11.78,38.19c1.59,19.09,1.91,21.64-3.5,32.78s-7,21.32,11.77,21.64,29-.32,48.06,2.55,25.78,3.82,36.28,2.23,12.73-5.1,8.28-8.28-22.92-6.68-30.87-13c-7.64-5.73-29.28-15.28-29.6-17.82-1-8.59-1.27-39.78.32-50s3.81-24.82,4.45-28.64,3.82-7.64-1.59-6.37-25.78,4.14-41.06,3.18-16.86-4.45-17.82-3.49Z"/><path class="cls-5" d="M543.67,659.94a50.84,50.84,0,0,0,19.42,4.46s-2.23,10.5,1.27,16.86-25.46,2.55-25.46,2.55l-1.27-22.6ZM628,687.31c5.1-1.59,8.6-7.32,4.46-12.73-4.46-5.41-8.28-6.37-2.55-6.68s26.74,12.41,26.74,12.41l-10.82,9.86ZM531.9,574c7.32,2.54,18.46,3.18,28,2.86s23.87-1.59,33.1-4.77,5.41,3.5,5.41,3.5l-5.09,4.77s-12.09,4.78-31.82,4.46c-23.24-.32-30.24-2.87-30.24-2.87Zm.63,15.91c7.32,2.55,18.46,3.18,28,2.87s22.28-.32,31.51-3.82c3.82-1.28,1.59,4.13,1.59,4.13L592.05,596s-12.41,4.45-31.83,4.13c-23.23-.31-27.37-2.22-27.37-2.22Z"/><path class="cls-6" d="M536.35,556.18s27.69,9.87,58.88,3.19c0,0-12.09,57-6.68,86.25,0,0,5.41,7.64,45.51,22.28,0,0,17.82,4.45,17.19,13.36,0,0,.63,1.91-21,1.28s-42-4.46-56.33-4.46-29.6.64-32.15-3.5c-2.86-3.82.64-13.69,4.78-19.42,4.46-6,3.18-10.5,2.86-21.32-.95-28-22.6-57.29-13-77.66Z"/><path class="cls-6" d="M536.35,556.18s27.69,9.55,58.88,2.87c0,0-12.09,57.29-6.68,86.57,0,0,5.41,7.64,45.51,22.28,0,0,17.82,4.45,17.19,13.36,0,0,.63,1.91-21,1.28s-42.33-6.69-56.33-4.46c-15,2.55-29.6,1.59-32.15-3.5-2.22-4.14.64-13.69,4.78-19.42,4.46-6,3.18-10.5,2.86-21.32-.95-28-22.6-57.29-13-77.66Z"/><path class="cls-1" d="M511.53,366.82c0,2.22,24.82,14.64,38.51,17.18s42.33,0,46.78-.95l-.64,4.45s-34,5.1-60.15-1.9S512.8,377,512.8,377Z"/><path class="cls-3" d="M458.38,638.3c3.81,1.91,17.5,5.41,26.41,3.5,1.27-.32,0-22,3.5-31.83,5.1-13.68,13.37-24.82,17.19-49a199.71,199.71,0,0,1-36.6-7.32c-10.19,31.19-6.68,57.92-10.5,84.66Zm21.32,20.05c2.23.64,3.82,3.18,4.46,1.59,1.27-2.86-2.23-8.27-2.55-12.09v-.32c-2.86-2.55-22.28-2.87-21-1.59-2.23,4.13-5.73,3.5-7,11.77-.64,4.14,4.45.64,9.22.32-8.59,5.73-18.45,13.05-20.05,19.41-1.91,8.92,1.28,11.46,10.83,16.24,8.27,1.91,18.14,2.23,25.77,1.91,8.6-1.59,10.19-5.73,7.64-11.46-3.82-8.59-6.36-19.73-7.32-25.78Z"/><path class="cls-1" d="M483.2,244.92c10.5,6.05,25.15,4.46,30.55,4.14,1.28,0,14-2.23,14.65-1.91,1.27.31,1.27,1.27,1.27,1.27s-4.78,2.54-15.6,3.18c-10.18.64-22.27,0-29-3.18-8-3.5-1.91-3.5-1.91-3.5ZM591.41,251c1.91,1.27,14.32,6,19.74,11.77,4.77,5.09,2.22,4.78,1.27,3.5-1.27-1.59-11.14-8.27-15-9.86s-8.59-4.46-8.59-5.1,2.54-.31,2.54-.31Z"/><path class="cls-3" d="M481.61,383.05c9.23-.64,18.78,1.59,24.82,7.95,3.19,3.19,8.28,6.69,7.64,9.87,0,.95-1.91,3.5-3.5,5.41-.95,1.27-3.82,4.14-4.77,5.09-1.27,1-5.73,4.46-6.68,5.09s-2.23,2.23-3.19,2.55c-3.18,1.59-6.68.32-9.86-1.27s.63-1.91-2.87-4.46c-8.59-6-13.36-10.18-9.86-22,.31-2.23,3.81-4.77,8.27-8.27Z"/><path class="cls-7" d="M400.45,310.16C371.81,321.62,298.92,357.91,278.24,369c17.18,10.83,25.14,36.92,27.69,63.34.31,2.55.63,4.77.95,7.32a31.64,31.64,0,0,0,.95,4.77,1.92,1.92,0,0,0,.32,1.28c18.78-51.24,85.94-105.35,88.48-109.49,1.27-1.91-1.59-10.18,2.87-18.14,5.73-10.18,16.87-14.64.95-8Zm68.11,240.3c14.64-29.28,15-57.29,14.64-90.07,0-13.69,9.87-33.11,4.78-27.69-19.1,21.32-67.16,61.42-101.85,63.65C434.83,494.76,453.92,519.27,468.56,550.46Z"/><path class="cls-1" d="M250.23,396.1c18.14-13.05,112-63,134.63-70,22.59-7.32,15.59-15.92,15.59-15.92s-91.66,39.47-146.4,73.52"/><path class="cls-7" d="M517.57,304.12c-7.32-2.87-13.05,5.73-11.14,14s19.1,17.51,18.15,47.74c-.64,24.83-6.05,35-6.05,35l-12.1-15.27s-1.91-34.38-6-39.47S483.2,331.81,478.11,327s5.73-11.14,5.09-20c-.63-8.59,5.41-25.78,5.41-25.78ZM561.81,439.7c-.63,23.87,4.78,59.2,7,76.06s5.09,18.15,0,25.79C563.72,548.87,557,561,557,561l-22-1.91s17.5-22.28,18.46-26.42S544.63,497,544.63,497ZM519.48,216.91c4.46,9.87,9.87,14.32,18.46,17.19,5.1,1.91,25.15,4.45,33.1-4.46,3.5-4.14,1.28-15.28,1.28-15.28L554.17,229l-24.5-4.45-2.87-7.32Z"/><path class="cls-8" d="M521.39,238.87c8.28,5.41,29,10.51,34.69,11.46,5.73,1.27,15-6.05,19.42-8,4.77-2.22,13-3.5,22.6,5.1.95.95-2.23,5.09-2.23,5.09-.32-.32-2.23-.32-4.78-1.59a14.3,14.3,0,0,0-8.59-1.91C566.59,251,564,256.38,550,253.19s-17.51-5.73-31.19-5.09"/><path class="cls-2" d="M518.53,239.83c10.5,4.45,30.87,9.23,36.6,10.5s15-4.46,19.41-7.32c8-5.09,18.14-1,22.92,4.46,3.18,3.5,4.46,5.72,4.46,6.68,0,1.27-3.82,0-3.82,0-2.23-1-4.78-1.27-6.69-2.55-2.54-1.27-5.09-3.18-8.91-2.86-15.91,1.91-19.09,7.32-32.78,4.14s-17.19-6-31.82-5.1"/><path class="cls-1" d="M469.2,537.09c-.64-.64.63-1.27,0-1.27-4.14,0-9.87-3.19-13.05-7.64-13.69-19.74-33.74-32.78-70-31.83-54.43,1.27-76.07-21-80.2-63.65-2.23-23.24-8.6-45.83-21.65-58.56l-7.64,4.77c14.64,12.73,19.42,33.42,22.6,61.74,5.09,42.65,39.47,62.38,79.57,63,41.69.64,56.65,9.23,72.24,30.24a25,25,0,0,0,15.28,9.86Z"/><path class="cls-7" d="M616.87,332.44c1,4.78,3.5,14,8.6,18.46,2.23,2.23,2.54,2.86.63,2.86s-15.91-.63-15.91-.63l-3.82-6.68Z"/></svg>