<svg id="Layer_1" data-name="Layer 1" xmlns="http://www.w3.org/2000/svg" viewBox="0 0 850 850"><defs><style>.cls-1{fill:#001e36;}.cls-2{fill:#31a8ff;}</style></defs><path class="cls-1" d="M263.72,200H561.79a81.66,81.66,0,0,1,81.73,81.73V568.27A81.66,81.66,0,0,1,561.79,650H263.72A81.66,81.66,0,0,1,182,568.27V281.73A81.66,81.66,0,0,1,263.72,200Z"/><path class="cls-2" d="M424.29,518.07H302.37c-2.12,0-3.08-1.15-3.08-3.46V318.08a2.39,2.39,0,0,1,2.11-2.69h38.46a1.81,1.81,0,0,1,2.12,1.54V479h88.84c1.92,0,2.5,1,2.11,2.69l-5.58,33.45a3.35,3.35,0,0,1-1.15,2.31,3.14,3.14,0,0,1-1.91.58Z"/><path class="cls-2" d="M455.06,364.23h33.65a4.32,4.32,0,0,1,4,3.08,12,12,0,0,1,1.54,4.42c.39,1.93.77,4,1,6,.19,2.11.39,4.42.39,6.92a71.29,71.29,0,0,1,20.57-16.53,57.33,57.33,0,0,1,28.65-6.92,2.37,2.37,0,0,1,2.69,2.11v38.26c0,1.54-1,2.12-3.07,2.12a78.35,78.35,0,0,0-36.35,6.54,32.09,32.09,0,0,0-10.38,7.12v98.07c0,1.93-.77,2.68-2.5,2.68h-37.5a2.65,2.65,0,0,1-3.08-2.3V408.46c0-4.62,0-9.43-.19-14.42s-.2-10-.39-15q-.3-6.33-1.16-12.7a1.76,1.76,0,0,1,1.34-2.11c.21-.19.39-.19.78,0Z"/></svg>