<svg id="Layer_1" data-name="Layer 1" xmlns="http://www.w3.org/2000/svg" viewBox="0 0 850 850"><defs><style>.cls-1{fill:#264de4;}.cls-2{fill:#2965f1;}.cls-3{fill:#ebebeb;}.cls-4{fill:#fff;}</style></defs><path class="cls-1" d="M424.76,650l-162-45L226.61,200H623.39L587.25,605,424.76,650Z"/><path class="cls-2" d="M556.3,579.17l30.89-346H425V615.57l131.3-36.4Z"/><path class="cls-3" d="M309.39,383.33,313.84,433H425V383.33Z"/><path class="cls-3" d="M300.44,282.79,305,332.46H425V282.79Z"/><path class="cls-3" d="M425,512.34l-.22.06-55.32-14.94-3.54-39.62H316.06l7,78,101.75,28.24L425,564V512.34Z"/><path class="cls-4" d="M540.29,383.33l9-100.54H424.83v49.67h70l-4.52,50.87H424.83V433H486l-5.77,64.43-55.4,14.95v51.68l101.83-28.22.75-8.4,11.67-130.77,1.21-13.34Z"/></svg>