<svg id="Layer_1" data-name="Layer 1" xmlns="http://www.w3.org/2000/svg" viewBox="0 0 850 850"><defs><style>.cls-1{fill:#d4b830;}.cls-2,.cls-3{fill:#ebebeb;opacity:0.99;isolation:isolate;}.cls-2{fill-opacity:0;}.cls-3{fill-opacity:0.92;}.cls-4{fill:#fdd83c;}</style></defs><g id="g5193"><path id="path5113" class="cls-1" d="M263.78,604.6,227,200l396,.15L586.53,604.29,424.69,650Zm293-22.08L587.46,236H425.31l1.23,382.21ZM410.18,286.79H370.8l-.47,207.39-76.44-20.84.16,47.4,116.13,31.35V286.79Z"/><path id="path5159" class="cls-2" d="M397.2,548.23c-5.09-1.54-30.26-8.34-55.9-15.29l-46.48-12.5V497.12c0-22.86,0-23.32,2.31-22.55,1.24.46,18.23,5.1,37.68,10.5l35.37,9.73.31-103.47.31-103.46h38.6V419.44C409.4,524,409.09,551,408,551c-.77-.15-5.71-1.39-10.81-2.78Z"/><path id="path5157" class="cls-3" d="M294.05,520.74l-.16-47.4s48.8,13.74,76.44,20.84l.47-207.24h39.38V552.09L294.05,520.74Z"/><path id="path5117" class="cls-4" d="M425.31,235.83H587.46L556.73,582.36,425.31,618ZM548.39,524.3,559,394.73l-78.76,8.8V334.35l84-.31,3.4-47.25-126.78.62,1.69,172,76.6-13.13-1.08,38.3-77.21,20.54.77,46.94L548.39,524.3Z"/></g></svg>