<svg id="Layer_1" data-name="Layer 1" xmlns="http://www.w3.org/2000/svg" viewBox="0 0 850 850"><defs><style>.cls-1{fill:#563d7c;}.cls-2{fill:#fff;}</style></defs><path class="cls-1" d="M650,575a75.22,75.22,0,0,1-75,75H275a75.22,75.22,0,0,1-75-75V275a75.22,75.22,0,0,1,75-75H575a75.22,75.22,0,0,1,75,75Z"/><path class="cls-2" d="M322.28,297.79H449.85q35.29,0,56.62,16.18c14.19,10.81,21.32,27.06,21.32,48.9q0,19.85-9.7,34c-6.47,9.41-15.74,16.76-27.8,21.91v.74q24.27,5.17,36.77,22.94c8.31,11.91,12.5,26.76,12.5,44.7A74.77,74.77,0,0,1,534,516a58.16,58.16,0,0,1-17.28,23.16c-7.86,6.47-17.86,11.62-30.14,15.44s-26.84,5.73-43.75,5.73H322.28V297.79Zm46,109.93h75c11,0,20.22-3.09,27.57-9.41s11-15.3,11-27.06q0-19.86-9.93-27.94c-6.62-5.37-16.17-8.09-28.67-8.09h-75v72.5Zm0,115.07h81.25c14,0,24.85-3.6,32.5-10.88s11.61-17.5,11.61-30.73c0-13-3.82-22.94-11.61-30s-18.53-10.44-32.5-10.44H368.24Z"/></svg>